<?xml version="1.0" encoding="utf-8"?>
<!-- Generator: Adobe Illustrator 16.0.0, SVG Export Plug-In . SVG Version: 6.00 Build 0)  -->
<!DOCTYPE svg PUBLIC "-//W3C//DTD SVG 1.1//EN" "http://www.w3.org/Graphics/SVG/1.1/DTD/svg11.dtd">
<svg version="1.1" id="Layer_1" xmlns="http://www.w3.org/2000/svg" xmlns:xlink="http://www.w3.org/1999/xlink" x="0px" y="0px"
	 width="139.333px" height="200.667px" viewBox="0 0 139.333 200.667" enable-background="new 0 0 139.333 200.667"
	 xml:space="preserve">
<g id="Layer_1_1_">
</g>
<g id="Layer_2">
	<polygon fill="#857D7B" points="48.986,66.238 131.838,22.526 131.838,149.947 48.986,193.66 	"/>
	<polygon fill="#DDD6D3" points="12.129,46.809 48.986,65.952 48.986,193.66 12.129,174.518 	"/>
	<polygon fill="#8E8685" points="89.553,68.237 127.266,47.952 127.266,176.089 89.553,196.375 	"/>
	<g>
		<polygon fill="#AFABA5" points="49.057,66.094 67.859,56.181 89.697,67.952 127.409,47.953 105.412,36.383 131.696,22.526 
			94.768,3.598 12.344,46.739 		"/>
		<g>
			<polygon fill="#857D7B" points="18.417,46.381 21.309,47.917 94.913,9.383 94.913,9.377 122.838,24.239 126.197,22.526 
				94.911,6.234 94.911,6.241 			"/>
			<polygon fill="#857D7B" points="99.484,39.524 118.41,49.667 121.768,47.953 99.482,36.381 			"/>
			<g>
				<polygon fill="#857D7B" points="123.483,23.526 123.245,24.033 99.5,36.426 				"/>
			</g>
			<g>
				<polygon fill="#857D7B" points="118.848,49.008 118.612,49.515 89.818,64.407 				"/>
			</g>
			<g>
				<polygon fill="#857D7B" points="19.947,46.812 20.182,47.319 48.977,62.21 				"/>
			</g>
			<g>
				<polygon fill="#857D7B" points="48.682,62.049 48.932,62.167 67.699,51.952 				"/>
			</g>
			<g>
				<polygon fill="#857D7B" points="90.055,64.299 89.803,64.416 67.695,51.961 				"/>
			</g>
		</g>
	</g>
	<polygon fill="#DDD6D3" points="67.555,183.946 89.555,196.518 89.555,68.094 67.555,56.094 	"/>
</g>
</svg>
