<?xml version="1.0" encoding="utf-8"?>
<!-- Generator: Adobe Illustrator 16.0.0, SVG Export Plug-In . SVG Version: 6.00 Build 0)  -->
<!DOCTYPE svg PUBLIC "-//W3C//DTD SVG 1.1//EN" "http://www.w3.org/Graphics/SVG/1.1/DTD/svg11.dtd">
<svg version="1.1" xmlns="http://www.w3.org/2000/svg" xmlns:xlink="http://www.w3.org/1999/xlink" x="0px" y="0px"
	 width="139.333px" height="200.667px" viewBox="0 0 139.333 200.667" enable-background="new 0 0 139.333 200.667"
	 xml:space="preserve">
<g id="Layer_1">
</g>
<g id="Layer_2">
	<polygon fill="#857D7B" points="94.982,193.659 12.13,149.947 12.13,22.526 94.982,66.238 	"/>
	<polygon fill="#DDD6D3" points="131.838,174.518 94.982,193.659 94.982,65.952 131.838,46.809 	"/>
	<polygon fill="#8E8685" points="54.414,196.375 16.702,176.09 16.702,47.952 54.414,68.237 	"/>
	<g>
		<polygon fill="#AFABA5" points="131.623,46.739 49.199,3.598 12.272,22.526 38.556,36.383 16.559,47.953 54.271,67.952 
			76.109,56.181 94.911,66.094 		"/>
		<g>
			<polygon fill="#857D7B" points="49.057,6.241 49.057,6.234 17.771,22.526 21.129,24.239 49.055,9.377 49.055,9.383 
				122.659,47.917 125.552,46.381 			"/>
			<polygon fill="#857D7B" points="44.486,36.381 22.2,47.953 25.558,49.667 44.484,39.524 			"/>
			<g>
				<polygon fill="#857D7B" points="44.467,36.426 20.723,24.033 20.485,23.526 				"/>
			</g>
			<g>
				<polygon fill="#857D7B" points="54.15,64.407 25.356,49.515 25.119,49.008 				"/>
			</g>
			<g>
				<polygon fill="#857D7B" points="94.991,62.21 123.785,47.319 124.021,46.812 				"/>
			</g>
			<g>
				<polygon fill="#857D7B" points="76.269,51.952 95.035,62.167 95.285,62.049 				"/>
			</g>
			<g>
				<polygon fill="#857D7B" points="76.273,51.961 54.164,64.416 53.913,64.299 				"/>
			</g>
		</g>
	</g>
	<polygon fill="#DDD6D3" points="76.412,56.094 54.413,68.094 54.413,196.518 76.412,183.946 	"/>
</g>
</svg>
