<?xml version="1.0" encoding="utf-8"?>
<!-- Generator: Adobe Illustrator 16.0.0, SVG Export Plug-In . SVG Version: 6.00 Build 0)  -->
<!DOCTYPE svg PUBLIC "-//W3C//DTD SVG 1.1//EN" "http://www.w3.org/Graphics/SVG/1.1/DTD/svg11.dtd">
<svg version="1.1" xmlns="http://www.w3.org/2000/svg" xmlns:xlink="http://www.w3.org/1999/xlink" x="0px" y="0px" width="63px"
	 height="65px" viewBox="0 0 63 65" enable-background="new 0 0 63 65" xml:space="preserve">
<g id="Layer_1">
</g>
<g id="Layer_2">
	<g>
		<g>
			<path fill="#FF0000" d="M31.438,60.25c-15.439,0-28-12.561-28-28s12.561-28,28-28s28,12.561,28,28S46.878,60.25,31.438,60.25z
				 M31.438,10.36c-12.071,0-21.891,9.82-21.891,21.891s9.819,21.891,21.891,21.891s21.891-9.82,21.891-21.891
				S43.51,10.36,31.438,10.36z"/>
		</g>
		<linearGradient id="SVGID_1_" gradientUnits="userSpaceOnUse" x1="10.3906" y1="11.2373" x2="24.8928" y2="25.2394">
			<stop  offset="0.0051" style="stop-color:#FFFFFF"/>
			<stop  offset="1" style="stop-color:#FFFFFF;stop-opacity:0"/>
		</linearGradient>
		<path opacity="0.6" fill="url(#SVGID_1_)" d="M9.296,32.25c0-12.071,9.819-21.891,21.891-21.891c0.78,0,1.551,0.043,2.31,0.123
			l3.146-3.145c-4.194-3.009-16.516-1.258-23.688,5.966c-7.066,7.119-9.037,19.658-6.071,23.793l2.536-2.536
			C9.339,33.801,9.296,33.031,9.296,32.25z"/>
	</g>
</g>
</svg>
