<?xml version="1.0" encoding="utf-8"?>
<!-- Generator: Adobe Illustrator 16.0.0, SVG Export Plug-In . SVG Version: 6.00 Build 0)  -->
<!DOCTYPE svg PUBLIC "-//W3C//DTD SVG 1.1//EN" "http://www.w3.org/Graphics/SVG/1.1/DTD/svg11.dtd">
<svg version="1.1" xmlns="http://www.w3.org/2000/svg" xmlns:xlink="http://www.w3.org/1999/xlink" x="0px" y="0px"
	 width="67.333px" height="67.667px" viewBox="0 0 67.333 67.667" enable-background="new 0 0 67.333 67.667" xml:space="preserve">
<g id="Layer_1">
</g>
<g id="Layer_2">
	<g>
		<path fill="#DBDBDB" d="M33.998,3.842c-16.568,0-30,13.432-30,30s13.432,30,30,30s30-13.432,30-30S50.566,3.842,33.998,3.842z
			 M33.998,58.592c-13.669,0-24.75-11.081-24.75-24.75s11.081-24.75,24.75-24.75s24.75,11.081,24.75,24.75
			S47.667,58.592,33.998,58.592z"/>
		<g>
			<path fill="#8B191B" d="M53.686,14.04c-10.905-10.904-28.646-10.904-39.552,0c-10.903,10.904-10.903,28.646,0,39.551
				c10.905,10.903,28.646,10.903,39.552,0C64.59,42.687,64.59,24.944,53.686,14.04z"/>
			<linearGradient id="SVGID_1_" gradientUnits="userSpaceOnUse" x1="13.9795" y1="14.1289" x2="28.4806" y2="28.1299">
				<stop  offset="0.0051" style="stop-color:#FFFFFF"/>
				<stop  offset="1" style="stop-color:#FFFFFF;stop-opacity:0"/>
			</linearGradient>
			<path opacity="0.3" fill="url(#SVGID_1_)" d="M40.229,10.228L10.471,39.986c-2.966-4.135-0.995-16.674,6.071-23.793
				C23.714,8.97,36.035,7.219,40.229,10.228z"/>
		</g>
	</g>
	<g opacity="0.3">
		<path fill="#DBDBDB" d="M26.158,47.532c-5.647-3.327-8.685-10.099-6.978-16.758c2.066-8.069,10.312-12.952,18.382-10.885
			c6.658,1.706,11.136,7.621,11.34,14.171l1.413,2.386c0.952-8.128-4.236-15.935-12.378-18.02
			c-8.877-2.273-17.946,3.098-20.221,11.974c-2.086,8.144,2.267,16.447,9.854,19.518L26.158,47.532z"/>
		<path fill="#DBDBDB" d="M33.836,11.343c-10.36,0-19.153,6.838-22.104,16.238h1.595c2.896-8.552,10.993-14.727,20.51-14.727
			c11.938,0,21.65,9.712,21.65,21.651s-9.712,21.651-21.65,21.651c-3.36,0-6.543-0.769-9.383-2.14h-3.075
			c3.601,2.307,7.874,3.651,12.458,3.651c12.771,0,23.161-10.39,23.161-23.162S46.606,11.343,33.836,11.343z"/>
		<path fill="#DBDBDB" d="M51.598,29.799c0.015,0.06,0.034,0.118,0.05,0.178c2.496,9.822-3.463,19.843-13.283,22.34
			c-9.822,2.497-19.844-3.463-22.341-13.285c-2.428-9.549,3.14-19.285,12.478-22.112l1.096-1.842
			c-0.221,0.049-0.441,0.095-0.66,0.15c-10.63,2.702-17.079,13.547-14.377,24.176c2.701,10.629,13.547,17.078,24.176,14.376
			s17.078-13.547,14.376-24.176c-0.135-0.531-0.296-1.049-0.472-1.56L51.598,29.799z"/>
	</g>
</g>
</svg>
