<?xml version="1.0" encoding="utf-8"?>
<!-- Generator: Adobe Illustrator 16.0.0, SVG Export Plug-In . SVG Version: 6.00 Build 0)  -->
<!DOCTYPE svg PUBLIC "-//W3C//DTD SVG 1.1//EN" "http://www.w3.org/Graphics/SVG/1.1/DTD/svg11.dtd">
<svg version="1.1" xmlns="http://www.w3.org/2000/svg" xmlns:xlink="http://www.w3.org/1999/xlink" x="0px" y="0px"
	 width="181.333px" height="157.333px" viewBox="0 0 181.333 157.333" enable-background="new 0 0 181.333 157.333"
	 xml:space="preserve">
<g id="Layer_1">
</g>
<g id="Layer_2">
	<g>
		<polygon fill="#726B56" points="105.517,153.523 11.664,101.24 11.664,62.886 105.517,115.168 		"/>
		<polygon fill="#C4BBB3" points="105.445,153.594 101.017,151.022 101.017,115.452 105.445,117.81 		"/>
		<polygon fill="#C4BBB3" points="16.04,103.598 11.611,101.149 11.611,65.58 16.04,67.938 		"/>
		<polygon fill="#686460" points="11.611,101.24 105.517,153.737 105.517,149.576 11.611,97.239 		"/>
		<polygon fill="#C4BBB3" points="15.235,68.741 101.659,116.882 101.659,112.883 15.235,64.742 		"/>
	</g>
	<polygon fill="#68151D" points="143.442,60.1 39.346,6.501 75.21,31.893 177.365,88.812 	"/>
	<polygon fill="#756D5A" points="56.019,147.952 22.593,129.524 42.948,118.597 76.375,137.024 	"/>
	<g>
		<polygon fill="#9C9473" points="165.513,121.452 105.517,153.594 105.517,114.739 138.515,60.957 165.513,82.599 		"/>
		<polygon fill="#E2D7CF" points="105.516,153.665 109.944,151.094 109.944,115.524 105.516,117.882 		"/>
		<polygon fill="#E2D7CF" points="161.083,123.667 165.512,121.096 165.512,85.526 161.083,87.884 		"/>
		<polygon fill="#E2D7CF" points="161.138,85.116 165.566,82.545 140.158,62.242 135.729,64.6 		"/>
		<polygon fill="#E2D7CF" points="165.513,86.527 105.517,118.669 105.517,114.668 165.513,82.526 		"/>
		<polygon fill="#75716D" points="165.513,121.526 105.517,153.667 105.517,149.666 165.513,117.525 		"/>
	</g>
	<g>
		<polygon fill="#D2C8BF" points="55.733,148.166 53.233,146.671 53.233,105.954 55.733,107.235 		"/>
		<polygon fill="#E2D7CF" points="55.757,148.238 58.115,146.778 58.115,106.062 55.757,107.307 		"/>
	</g>
	<g>
		<polygon fill="#E2D7CF" points="25.307,131.024 22.807,129.529 22.95,88.599 25.307,89.807 		"/>
		<polygon fill="#D2C8BF" points="25.377,131.097 27.735,129.637 27.735,88.92 25.377,89.633 		"/>
	</g>
	<polygon fill="#7C181D" points="107.646,119.132 5.491,62.212 41.354,3.21 143.51,60.13 	"/>
	<g>
		<polygon fill="#C4BBB3" points="37.455,78.693 56.447,107.811 22.95,88.599 		"/>
		<polygon fill="#8B191B" points="56.448,107.811 74.446,97.74 74.446,58.814 37.449,78.67 		"/>
	</g>
</g>
</svg>
