<?xml version="1.0" encoding="utf-8"?>
<!-- Generator: Adobe Illustrator 16.0.0, SVG Export Plug-In . SVG Version: 6.00 Build 0)  -->
<!DOCTYPE svg PUBLIC "-//W3C//DTD SVG 1.1//EN" "http://www.w3.org/Graphics/SVG/1.1/DTD/svg11.dtd">
<svg version="1.1" xmlns="http://www.w3.org/2000/svg" xmlns:xlink="http://www.w3.org/1999/xlink" x="0px" y="0px" width="188px"
	 height="158px" viewBox="0 0 188 158" enable-background="new 0 0 188 158" xml:space="preserve">
<g id="Layer_1">
</g>
<g id="Layer_2">
	<polygon fill="#2C2F2F" points="112.352,28.458 49.563,61.272 6.026,38.276 68.555,4.944 	"/>
	<polygon fill="#1B1B1C" points="48.014,47.707 111.188,14.505 134.83,40.86 71.655,74.062 	"/>
	<polygon fill="#232323" points="71.785,59.507 134.96,26.304 158.603,52.659 95.427,85.862 	"/>
	<polygon fill="#93471C" points="6.026,96.413 119.586,156.487 119.586,98.394 95.814,72.211 95.652,85.999 71.914,59.571 
		71.893,74.229 48.1,47.837 48.271,60.886 5.768,38.405 	"/>
	<polygon fill="#2A2A2B" points="95.814,72.167 158.99,38.966 182.633,65.32 119.457,98.522 	"/>
	<polygon fill="#D16C32" points="182.631,123.026 119.586,156.487 119.586,98.394 182.631,65.32 	"/>
	<g>
		<polygon fill="#491D0A" points="136.123,108.944 127.166,113.596 127.166,108.772 136.123,104.122 		"/>
		<polygon fill="#491D0A" points="149.947,101.968 140.989,106.619 140.989,101.796 149.947,97.146 		"/>
		<polygon fill="#491D0A" points="163.642,94.992 154.685,99.643 154.685,94.82 163.642,90.169 		"/>
		<polygon fill="#491D0A" points="177.207,88.016 168.25,92.667 168.25,87.844 177.207,83.192 		"/>
	</g>
	<g>
		<polygon fill="#491D0A" points="103.997,109.677 112.955,114.327 112.955,109.503 103.997,104.853 		"/>
		<polygon fill="#491D0A" points="90.174,102.7 99.131,107.351 99.131,102.527 90.174,97.876 		"/>
		<polygon fill="#491D0A" points="76.479,95.724 85.437,100.374 85.437,95.552 76.479,90.9 		"/>
		<polygon fill="#491D0A" points="62.914,88.747 71.871,93.397 71.871,88.575 62.914,83.925 		"/>
		<polygon fill="#491D0A" points="49.736,82.546 58.693,87.196 58.693,82.374 49.736,77.723 		"/>
		<polygon fill="#491D0A" points="35.912,75.569 44.871,80.221 44.871,75.397 35.912,70.747 		"/>
		<polygon fill="#491D0A" points="22.219,68.593 31.176,73.244 31.176,68.421 22.219,63.771 		"/>
		<polygon fill="#491D0A" points="8.653,61.616 17.611,66.268 17.611,61.444 8.653,56.794 		"/>
	</g>
	<g>
		<polygon fill="#491D0A" points="103.997,129.313 112.955,133.965 112.955,129.142 103.997,124.49 		"/>
		<polygon fill="#491D0A" points="90.174,122.337 99.131,126.988 99.131,122.165 90.174,117.514 		"/>
		<polygon fill="#491D0A" points="76.479,115.36 85.437,120.012 85.437,115.188 76.479,110.537 		"/>
		<polygon fill="#491D0A" points="62.914,108.385 71.871,113.035 71.871,108.212 62.914,103.562 		"/>
		<polygon fill="#491D0A" points="49.736,102.183 58.693,106.835 58.693,102.011 49.736,97.36 		"/>
		<polygon fill="#491D0A" points="35.912,95.206 44.871,99.858 44.871,95.034 35.912,90.384 		"/>
		<polygon fill="#491D0A" points="22.219,88.23 31.176,92.882 31.176,88.058 22.219,83.407 		"/>
		<polygon fill="#491D0A" points="8.653,81.255 17.611,85.905 17.611,81.082 8.653,76.431 		"/>
	</g>
</g>
</svg>
