<?xml version="1.0" encoding="utf-8"?>
<!-- Generator: Adobe Illustrator 16.0.0, SVG Export Plug-In . SVG Version: 6.00 Build 0)  -->
<!DOCTYPE svg PUBLIC "-//W3C//DTD SVG 1.1//EN" "http://www.w3.org/Graphics/SVG/1.1/DTD/svg11.dtd">
<svg version="1.1" xmlns="http://www.w3.org/2000/svg" xmlns:xlink="http://www.w3.org/1999/xlink" x="0px" y="0px" width="61.5px"
	 height="65px" viewBox="0 0 61.5 65" enable-background="new 0 0 61.5 65" xml:space="preserve">
<g id="Layer_1">
</g>
<g id="Layer_2">
	<path fill="#C1C1C3" d="M55.371,29.775c-0.823-2.63-4.57-3.076-6.845-3.322c-0.182-0.02-0.359-0.031-0.531-0.037
		c0.182-0.411,0.369-0.832,0.509-1.261c0.345-1.062,0.472-1.88,0.456-2.55c1.383-0.42,2.844-0.67,3.482-0.985
		c2.719-1.341,1.19-1.7-0.783-3.485c-2.98-2.695-1.875-4.591,0.827-6.679c1.016-0.784,2.583-1.585,1.681-3.085
		c-0.443-0.736-3.092-1.363-3.711-1.607c-1.844-0.726-3.646-1.616-5.491-2.316C42.513,3.52,38.353,2.26,37.05,5.212
		c-0.949,2.149,0.078,5.878-0.7,8.066c-0.685-0.036-1.345,0.308-1.931,1.282c-0.039,0.065-0.061,0.133-0.09,0.199
		c-0.872-0.041-1.805-0.502-2.431-0.896c-1.94-1.222-2.726-2.258-5.229-2.408c-1.763-0.105-3.905,0.696-5.357,1.783
		c-3.167,2.37,1.689,3.693,2.329,6.144c-0.871,0.056-1.723,0.147-2.479,0.236c-0.438,1.144,0.186,1.836,0.973,2.49
		c-3.041,1.478-9.346,0.713-8.583,4.685c0.333,1.729,2.277,2.834,2.989,4.48c-0.131,0.125-0.256,0.27-0.371,0.445
		c-0.339,0.514-0.111,1.211,0.355,1.992c-0.064,0.193-0.125,0.408-0.157,0.683c-0.132,1.073-0.773,0.598,0.216,1.468
		c0.412,0.361,1.049,0.391,1.732,0.335c1.57,2.139,2.604,4.173-2.135,4.497c-0.33-1.472-2.746-2.348-4.002-1.418
		c-1.18,0.872-0.699,2.848-0.695,4.274c0.002,0.82,0.1,1.672-0.012,2.442c-0.727,0.057-1.574,0.059-2.622,0.063
		c-3.206,0.016-2.596,0.611-3.072,3.071c-0.317,1.627-1.837,1.467-2.304,2.699c-0.583,1.549,2.185,1.499,2.84,2.708
		c0.076,0.137,0.135,0.274,0.179,0.415c0,0.004-0.003,0.006-0.003,0.009c-0.275,3.431-1.344,5.169,2.41,5.825l0.518-0.172
		c0.076-0.191,0.133-0.392,0.18-0.596c0.107-0.004,0.212-0.009,0.314-0.008H9.601c0.08-0.363,0.123-0.744,0.145-1.135
		c0.146-0.816,0.319-1.865,0.544-2.844c1.26-0.021,3.02,0.809,3.843,0.652c1.787-0.336,1.157-1.193,1.795-2.264
		c0.061,0.08,0.119,0.246,0.18,0.553c0.475,2.354,3.369,5.256,5.334,2.312c0.432-0.646,0.407-1.238,0.32-1.749
		c2.117,0.599,2.824,0.243,3.178-0.565c0.023,0.042,0.05,0.083,0.072,0.128c0.836,1.598-0.525,1.749,1.966,2.18
		c4.343,0.75,9.95-0.326,8.011-5.514c-0.022-0.055-0.053-0.115-0.084-0.175c0.243-0.056,0.439-0.133,0.584-0.239
		c1.052,0.412,2.219,0.672,3.018-0.105c0.568-0.552,0.535-1.803,0.613-2.953c0.132,0.002,0.251,0.003,0.348,0
		c0.332-0.01,0.662-0.03,0.985-0.057c0.28,0.271,0.539,0.499,0.763,0.618c1.918,1.021,2.699-0.393,2.941-1.955
		c0.459-0.601,0.49-1.452-0.111-2.626c-0.097-0.31-0.217-0.611-0.354-0.905c0.042-0.185,0.087-0.374,0.14-0.581
		c0.572-2.271,1.444-1.809,2.932-2.83c1.498-1.029,1.199-1.299,2.205-2.609c0.562-0.736,1.732-1.883,2.457-3.153
		c0.73-0.175,1.438-0.409,2.089-0.786C54.842,32.637,55.918,31.525,55.371,29.775z"/>
</g>
</svg>
