<?xml version="1.0" encoding="utf-8"?>
<!-- Generator: Adobe Illustrator 16.0.0, SVG Export Plug-In . SVG Version: 6.00 Build 0)  -->
<!DOCTYPE svg PUBLIC "-//W3C//DTD SVG 1.1//EN" "http://www.w3.org/Graphics/SVG/1.1/DTD/svg11.dtd">
<svg version="1.1" xmlns="http://www.w3.org/2000/svg" xmlns:xlink="http://www.w3.org/1999/xlink" x="0px" y="0px" width="50.5px"
	 height="43.5px" viewBox="0 0 50.5 43.5" enable-background="new 0 0 50.5 43.5" xml:space="preserve">
<g id="Layer_1">
</g>
<g id="Layer_2">
	<path fill="#C1C1C3" d="M45.99,12.443c-1.135-0.381-3.098,0.324-4.207,0.481c-1.08,0.152-4.768,0.9-5.684,0.015
		c-1.389-1.344,0.867-3.628,1.45-5.074c0.79-1.961,0.272-2.537-2.028-2.119c-2.96,0.537-4.307,2.368-5.619,4.623
		c-0.766,1.313-1.908,1.834-3.372,1.155c-0.739-0.343-1.19-1.583-1.827-1.819c-1.391-0.514-7.229,1.431-7.84,2.783
		c-1.354,2.999,3.47,3.305,4.854,4.308c3.15,2.28,0.018,1.992-0.887,3.479c-0.33,0.545,0.389,1.967,0.236,2.687
		c-0.245,1.142-0.564,1.376-1.48,1.731c-0.824,0.319-2.137,0.035-3.061,0.316c-0.519,0.159-0.944,0.42-1.352,0.699
		c-0.8,0.088-1.504,0.601-2.172,1.275c-1.403,0.383-3.344-0.485-4.589,0.308c-1.089,0.692-0.575,2.055-1.442,2.741
		c-1.199,0.949-2.708-0.92-2.693,2.05c0.01,1.904,1.255,1.714,2.042,2.912c0.77,1.174-0.061,2.536,0.341,3.763
		c0.092,0.273,0.286,0.604,0.527,0.875c-0.072,0.671,0.17,1.033,1.305,0.461l0.184-0.259c0.01-0.044,0.021-0.099,0.031-0.147
		c0.007-0.011,0.015-0.014,0.021-0.024l-0.02,0.02c0.254-1.175,0.578-3.714,1.163-5.261c0.021-0.025,0.03-0.052,0.053-0.078
		c0.196-0.232,0.847,0.067,1.063-0.354c0.128-0.248-0.004-0.652-0.046-1.01c0.88-0.522,1.662,0.193,2.853,0.614
		c0.654,0.231,1.938,0.84,2.648,0.237c0.276-0.236,0.312-0.645,0.328-1.064c1.106,0.531,1.104,0.289,2.508-0.008
		c1.534-0.324,3.211,0.553,4.628,0.062c1.064-0.368,1.173-0.944,1.195-1.577c0.357-0.289,0.702-0.645,1.03-1.103
		c0.286-0.398,0.46-0.771,0.6-1.122c1.543,0.09,3.524,2.297,4.986,2.52c5.188,0.789,2.535-2.088,3.525-4.471
		c1.324-3.186,3.774,1.083,5.09,1.782c2.64,1.403,3.131-1.798,3.018-3.661c-0.115-1.853-1.75-3.262-1.519-4.983
		c0.267-1.973,2.527-2.583,3.809-3.798C46.934,15.184,48.506,13.285,45.99,12.443z"/>
</g>
</svg>
