<?xml version="1.0" encoding="utf-8"?>
<!-- Generator: Adobe Illustrator 16.0.0, SVG Export Plug-In . SVG Version: 6.00 Build 0)  -->
<!DOCTYPE svg PUBLIC "-//W3C//DTD SVG 1.1//EN" "http://www.w3.org/Graphics/SVG/1.1/DTD/svg11.dtd">
<svg version="1.1" xmlns="http://www.w3.org/2000/svg" xmlns:xlink="http://www.w3.org/1999/xlink" x="0px" y="0px" width="39px"
	 height="31px" viewBox="0 0 39 31" enable-background="new 0 0 39 31" xml:space="preserve">
<g id="Layer_1">
</g>
<g id="Layer_2">
	<path fill="#C1C1C3" d="M6.635,25.594c-2.432,1.226-0.779-1.816-0.67-3.062C6.021,21.9,6.169,20.593,5.96,19.99
		c-0.213-0.613-0.979-0.868-1.179-1.451c-0.703-2.059,1.043-2.092,2.404-2.459c2.479-0.67,4.068-5.446,6.842-4.844
		c0.025,1.017-2.038,4.035,0.767,3.435c0.153-0.033,4.329-5.241,4.108-1.759c0.602,0.04,1.237,0.038,1.835-0.006
		c0.882-1.287,0.743-2.766,1.964-3.909c0.999-0.938,2.861-1.462,4.232-1.06c0.784,0.229,1.076,1.053,1.801,1.174
		c1.297,0.217,1.929-1.31,3.394-0.988c0.117,1.196,0.354,2.365-0.052,3.544c-1.849,0.251-3.699-0.246-5.4,0.529
		c-1.797,0.817-1.336,1.964-2.4,3.445c-1.467,2.044-3.217,2.302-5.222,1.673c-1.05-0.328-2.964-1.178-3.846-0.298
		c-0.53,0.529-0.03,1.813-0.622,2.315c-0.71,0.603-1.994-0.006-2.646-0.237c-1.435-0.507-2.274-1.47-3.409-0.142
		c-0.958,1.122-1.386,5.012-1.712,6.382"/>
</g>
</svg>
