<?xml version="1.0" encoding="utf-8"?>
<!-- Generator: Adobe Illustrator 16.0.0, SVG Export Plug-In . SVG Version: 6.00 Build 0)  -->
<!DOCTYPE svg PUBLIC "-//W3C//DTD SVG 1.1//EN" "http://www.w3.org/Graphics/SVG/1.1/DTD/svg11.dtd">
<svg version="1.1" xmlns="http://www.w3.org/2000/svg" xmlns:xlink="http://www.w3.org/1999/xlink" x="0px" y="0px" width="55.5px"
	 height="58.5px" viewBox="0 0 55.5 58.5" enable-background="new 0 0 55.5 58.5" xml:space="preserve">
<g id="Layer_1">
</g>
<g id="Layer_2">
	<path fill="#C1C1C3" d="M50.03,22.579c-0.939-0.805-2.17,0.253-2.733-0.193c-1.7-1.345-0.304-2.973,0.269-4.73
		c2.138-6.565-3.43-4.539-6.883-7.515c-1.586-1.363-4.949-6.832-7.201-3.08c-1.532,2.551,2.777,5.354,1.152,8.147
		c-2.096,3.601-4.713-1.794-6.748-2.725c-2.143-0.98-5.34-0.639-7.66-0.365c-0.811,2.11,1.995,2.685,2.79,4.318
		c-3.761,1.204-3.704-0.014-3.211,3.802c0.619,4.777-2.869,1.398-4.571,3.98c-1.533,2.324,8.499,8.393,0.011,8.975
		c-0.331-1.472-2.747-2.348-4.003-1.418c-1.18,0.872-0.696,2.848-0.694,4.274c0.003,1.188,0.21,2.442-0.321,3.417
		c-0.686-0.043-1.341-0.012-1.869,0.325c-0.404,0.257-0.588,0.606-0.702,0.981c-0.226,0.066-0.446,0.146-0.653,0.258
		c-0.834,0.453-1.388,1.029-1.672,1.771c-0.637-0.031-1.117,0.099-1.109,1.78c0.008,1.556,0.838,1.723,1.571,2.38
		c-0.119,0.16-0.222,0.31-0.237,0.495c-0.277,3.431-1.345,5.169,2.409,5.825l0.517-0.172c0.218-0.533,0.293-1.127,0.328-1.742
		c0.146-0.816,0.318-1.862,0.542-2.839c1.26-0.022,3.02,0.808,3.843,0.651c1.944-0.365,1.024-1.347,1.991-2.55
		c0.023-0.028,0.044-0.046,0.066-0.073c0.42,0.061,0.831,0.031,1.136-0.227c0.229-0.193,0.293-0.504,0.318-0.842
		c1.311-0.207,2.146,1.975,4.031,2.521c4.442,1.289,2.827-1.503,4.444-3.975c0.816-1.248,2.025-1.709,3.332-1.762
		c1.096,0.691,2.226,1.622,3.151,1.764c1.59,0.242,2.438,0.137,2.887-0.191c1.051,0.412,2.218,0.672,3.018-0.105
		c0.781-0.761,0.426-2.848,0.801-4.168c0.719,0.701,1.399,1.506,1.908,1.776c2.641,1.403,3.133-1.798,3.018-3.661
		c-0.04-0.652-0.272-1.248-0.543-1.825c0.043-0.185,0.087-0.374,0.139-0.581c0.574-2.271,1.445-1.809,2.934-2.83
		c1.498-1.029,1.199-1.299,2.204-2.609C49.19,28.328,52.933,25.072,50.03,22.579z"/>
</g>
</svg>
