<?xml version="1.0" encoding="utf-8"?>
<!-- Generator: Adobe Illustrator 16.0.0, SVG Export Plug-In . SVG Version: 6.00 Build 0)  -->
<!DOCTYPE svg PUBLIC "-//W3C//DTD SVG 1.1//EN" "http://www.w3.org/Graphics/SVG/1.1/DTD/svg11.dtd">
<svg version="1.1" xmlns="http://www.w3.org/2000/svg" xmlns:xlink="http://www.w3.org/1999/xlink" x="0px" y="0px"
	 width="57.667px" height="57.333px" viewBox="0 0 57.667 57.333" enable-background="new 0 0 57.667 57.333" xml:space="preserve">
<g id="Layer_1">
</g>
<g id="Layer_2">
	<g>
		<g>
			<linearGradient id="SVGID_1_" gradientUnits="userSpaceOnUse" x1="8.3145" y1="8.4629" x2="22.8144" y2="22.4629">
				<stop  offset="0.0051" style="stop-color:#FFFFFF"/>
				<stop  offset="1" style="stop-color:#FFFFFF;stop-opacity:0"/>
			</linearGradient>
			<path opacity="0.3" fill="url(#SVGID_1_)" d="M34.563,4.561L4.805,34.32c-2.966-4.135-0.995-16.674,6.071-23.793
				C18.048,3.303,30.369,1.552,34.563,4.561z"/>
		</g>
	</g>
	<g opacity="0.3">
		<path fill="#DBDBDB" d="M20.492,41.865c-5.647-3.327-8.685-10.099-6.978-16.758c2.066-8.069,10.312-12.952,18.382-10.885
			c6.658,1.706,11.136,7.621,11.34,14.171l1.413,2.386c0.952-8.128-4.236-15.935-12.378-18.02
			c-8.877-2.273-17.946,3.098-20.221,11.974c-2.086,8.144,2.267,16.447,9.854,19.518L20.492,41.865z"/>
		<path fill="#DBDBDB" d="M28.17,5.677c-10.36,0-19.153,6.838-22.104,16.238H7.66c2.896-8.552,10.993-14.727,20.51-14.727
			c11.938,0,21.65,9.712,21.65,21.651s-9.712,21.651-21.65,21.651c-3.36,0-6.543-0.769-9.383-2.14h-3.075
			C19.312,50.656,23.586,52,28.17,52c12.771,0,23.161-10.39,23.161-23.162S40.94,5.677,28.17,5.677z"/>
		<path fill="#DBDBDB" d="M45.932,24.133c0.015,0.06,0.034,0.118,0.05,0.178c2.496,9.822-3.463,19.843-13.283,22.34
			c-9.822,2.497-19.844-3.463-22.341-13.285c-2.428-9.549,3.14-19.285,12.478-22.112l1.096-1.842
			c-0.221,0.049-0.441,0.095-0.66,0.15C12.641,12.264,6.191,23.109,8.894,33.738c2.701,10.629,13.547,17.078,24.176,14.376
			s17.078-13.547,14.376-24.176c-0.135-0.531-0.296-1.049-0.472-1.56L45.932,24.133z"/>
	</g>
</g>
</svg>
