<?xml version="1.0" encoding="utf-8"?>
<!-- Generator: Adobe Illustrator 16.0.0, SVG Export Plug-In . SVG Version: 6.00 Build 0)  -->
<!DOCTYPE svg PUBLIC "-//W3C//DTD SVG 1.1//EN" "http://www.w3.org/Graphics/SVG/1.1/DTD/svg11.dtd">
<svg version="1.1" id="Layer_1" xmlns="http://www.w3.org/2000/svg" xmlns:xlink="http://www.w3.org/1999/xlink" x="0px" y="0px"
	 width="262px" height="432px" viewBox="0 0 262 432" enable-background="new 0 0 262 432" xml:space="preserve">
<g>
	<polygon fill="#847D62" points="226.975,63.1 138.378,11.754 42.733,150.676 42.733,419.498 94.968,387.527 95.086,379.229 
		191.32,320.582 199.159,323.76 226.975,306.736 	"/>
	<g>
		<g>
			<polygon fill="#726658" points="191.234,202.475 95.086,253.396 95.086,379.221 191.234,320.582 			"/>
			<polygon fill="#665C51" points="199.156,323.824 191.148,320.559 191.066,202.62 199.352,198.385 			"/>
		</g>
		<g>
			<polygon fill="#665C51" points="95.062,368.805 95.062,366.75 191.07,313.207 191.746,314.85 			"/>
		</g>
		<g>
			<polygon fill="#665C51" points="95.062,359.814 95.062,357.76 191.07,304.218 191.746,305.857 			"/>
		</g>
		<g>
			<polygon fill="#665C51" points="95.062,350.825 95.062,348.771 191.07,295.229 191.746,296.869 			"/>
		</g>
		<g>
			<polygon fill="#665C51" points="95.062,341.835 95.062,339.78 191.07,286.236 191.746,287.879 			"/>
		</g>
		<g>
			<polygon fill="#665C51" points="95.062,332.845 95.062,330.79 191.07,277.248 191.746,278.889 			"/>
		</g>
		<g>
			<polygon fill="#665C51" points="95.062,323.855 95.062,321.801 191.07,268.258 191.746,269.898 			"/>
		</g>
		<g>
			<polygon fill="#665C51" points="95.062,314.865 95.062,312.811 191.07,259.268 191.746,260.909 			"/>
		</g>
		<g>
			<polygon fill="#665C51" points="95.062,305.875 95.062,303.82 191.07,250.277 191.746,251.919 			"/>
		</g>
		<g>
			<polygon fill="#665C51" points="95.062,296.885 95.062,294.831 191.07,241.288 191.746,242.93 			"/>
		</g>
		<g>
			<polygon fill="#665C51" points="95.062,287.896 95.062,285.841 191.07,232.298 191.746,233.939 			"/>
		</g>
		<g>
			<polygon fill="#665C51" points="95.062,278.905 95.062,276.852 191.07,223.309 191.746,224.949 			"/>
		</g>
		<g>
			<polygon fill="#665C51" points="95.062,269.915 95.062,267.861 191.07,214.318 191.746,215.959 			"/>
		</g>
	</g>
</g>
</svg>
