<?xml version="1.0" encoding="utf-8"?>
<!-- Generator: Adobe Illustrator 16.0.0, SVG Export Plug-In . SVG Version: 6.00 Build 0)  -->
<!DOCTYPE svg PUBLIC "-//W3C//DTD SVG 1.1//EN" "http://www.w3.org/Graphics/SVG/1.1/DTD/svg11.dtd">
<svg version="1.1" id="Layer_1" xmlns="http://www.w3.org/2000/svg" xmlns:xlink="http://www.w3.org/1999/xlink" x="0px" y="0px"
	 width="128.993px" height="127.494px" viewBox="0 0 128.993 127.494" enable-background="new 0 0 128.993 127.494"
	 xml:space="preserve">
<g>
	<circle fill="none" stroke="#000000" stroke-width="7" stroke-miterlimit="10" cx="66.172" cy="62.385" r="52.032"/>
	<g>
		<path d="M23.618,58.842c0.213,0.71,0.666,1.19,1.321,1.417l2.209-0.006v5.964l1.321-0.001v-5.97l2.436-0.01
			c0.66-0.24,1.314-0.729,1.314-1.444L23.618,58.842L23.618,58.842z M87.385,65.938c0.667-0.24,1.11-0.956,1.11-1.44l-5.964,0.03
			v-5.967l-1.315,0.003v7.398L87.385,65.938z M63.115,60.082l4.635-0.02c0.656-0.24,1.323-0.723,1.545-1.438l-7.509,0.039v4.295
			l6.183-0.031v1.431l-4.854,0.014c-0.656,0.248-1.329,0.736-1.767,1.446l7.725-0.026v-4.536l-6.179,0.031L63.115,60.082z
			 M44.139,60.175l5.077-0.021c0.66-0.245,1.315-0.73,1.315-1.443L42.6,58.753C42.814,59.459,43.477,60.175,44.139,60.175
			 M44.139,63.031l5.077-0.02c0.66-0.243,1.315-0.708,1.315-1.438L42.6,61.612C42.814,62.327,43.477,63.036,44.139,63.031
			 M44.139,66.142l5.077-0.026c0.66-0.24,1.315-0.715,1.315-1.433L42.6,64.709C42.814,65.432,43.477,65.909,44.139,66.142"/>
		<g>
			<path d="M98.201,61.348v4.534h1.326v-2.856l4.851-0.033v2.864l1.331-0.003v-4.535L98.201,61.348z M99.527,59.921l5.07-0.031
				c0.67-0.241,1.327-0.729,1.327-1.433l-7.943,0.025C98.201,59.206,98.639,59.92,99.527,59.921"/>
		</g>
	</g>
</g>
</svg>
