<?xml version="1.0" encoding="utf-8"?>
<!-- Generator: Adobe Illustrator 16.0.0, SVG Export Plug-In . SVG Version: 6.00 Build 0)  -->
<!DOCTYPE svg PUBLIC "-//W3C//DTD SVG 1.1//EN" "http://www.w3.org/Graphics/SVG/1.1/DTD/svg11.dtd">
<svg version="1.1" id="Layer_1" xmlns="http://www.w3.org/2000/svg" xmlns:xlink="http://www.w3.org/1999/xlink" x="0px" y="0px"
	 width="194px" height="166px" viewBox="0 0 194 166" enable-background="new 0 0 194 166" xml:space="preserve">
<g>
	<g>
		<g id="iBaRlP_140_">
			<g>
				<path fill-rule="evenodd" clip-rule="evenodd" d="M75.416,108.912c-1.074,1.65-2.127,3.314-3.231,4.947
					c-0.898,1.329-2.097,1.664-3.361,0.928c-3.034-1.771-6.042-3.578-9.026-5.429c-1.239-0.77-1.43-2.005-0.605-3.312
					c2.062-3.271,4.18-6.509,6.321-9.731c0.893-1.344,2.144-1.585,3.38-0.88c2.989,1.713,5.946,3.487,8.883,5.282
					c1.399,0.854,1.661,2.072,0.648,3.604c-1.011,1.525-2,3.066-2.996,4.598C75.425,108.916,75.42,108.914,75.416,108.912z"/>
			</g>
		</g>
		<g id="iBaRlP_139_">
			<g>
				<path fill-rule="evenodd" clip-rule="evenodd" d="M61.345,100.501c-1.075,1.649-2.127,3.313-3.229,4.948
					c-0.898,1.328-2.099,1.662-3.364,0.926c-3.036-1.77-6.045-3.578-9.025-5.428c-1.239-0.77-1.432-2.004-0.607-3.312
					c2.063-3.27,4.186-6.508,6.322-9.732c0.894-1.342,2.145-1.586,3.379-0.879c2.991,1.715,5.945,3.488,8.887,5.281
					c1.396,0.853,1.658,2.074,0.646,3.604c-1.011,1.527-1.999,3.067-2.996,4.6C61.354,100.505,61.35,100.502,61.345,100.501z"/>
			</g>
		</g>
		<g id="iBaRlP_138_">
			<g>
				<path fill-rule="evenodd" clip-rule="evenodd" d="M47.274,92.09c-1.075,1.65-2.127,3.313-3.231,4.945
					c-0.897,1.33-2.099,1.666-3.363,0.928c-3.03-1.769-6.043-3.578-9.022-5.426c-1.241-0.771-1.435-2.005-0.608-3.314
					c2.064-3.268,4.181-6.51,6.322-9.73c0.891-1.344,2.145-1.585,3.379-0.881c2.992,1.715,5.945,3.488,8.885,5.281
					c1.396,0.854,1.658,2.074,0.647,3.605c-1.013,1.526-2.002,3.064-2.999,4.598C47.279,92.092,47.277,92.09,47.274,92.09z"/>
			</g>
		</g>
		<g id="iBaRlP_137_">
			<g>
				<path fill-rule="evenodd" clip-rule="evenodd" d="M33.203,83.68c-1.074,1.648-2.127,3.312-3.23,4.945
					c-0.9,1.33-2.099,1.664-3.361,0.927c-3.034-1.769-6.043-3.577-9.024-5.427c-1.245-0.77-1.435-2.004-0.61-3.312
					c2.063-3.27,4.183-6.51,6.324-9.733c0.889-1.342,2.144-1.582,3.376-0.878c2.993,1.714,5.946,3.488,8.887,5.281
					c1.397,0.854,1.659,2.074,0.646,3.604c-1.008,1.529-1.996,3.066-2.995,4.6C33.207,83.682,33.206,83.68,33.203,83.68z"/>
			</g>
		</g>
		<g id="iBaRlP_136_">
			<g>
				<path fill-rule="evenodd" clip-rule="evenodd" d="M85.321,93.693c-1.075,1.648-2.126,3.314-3.231,4.946
					c-0.898,1.329-2.099,1.665-3.363,0.93c-3.033-1.771-6.043-3.579-9.024-5.43c-1.239-0.771-1.434-2.003-0.605-3.312
					c2.062-3.271,4.18-6.511,6.321-9.729c0.893-1.346,2.144-1.588,3.378-0.881c2.989,1.713,5.948,3.486,8.888,5.28
					c1.395,0.854,1.658,2.073,0.645,3.605c-1.012,1.525-2.001,3.064-2.996,4.597C85.328,93.697,85.325,93.695,85.321,93.693z"/>
			</g>
		</g>
		<g id="iBaRlP_135_">
			<g>
				<path fill-rule="evenodd" clip-rule="evenodd" d="M71.25,85.281c-1.073,1.65-2.129,3.314-3.229,4.948
					c-0.9,1.33-2.099,1.664-3.365,0.928c-3.037-1.769-6.045-3.58-9.025-5.431c-1.241-0.768-1.433-2-0.605-3.311
					c2.062-3.27,4.183-6.509,6.32-9.732c0.893-1.343,2.146-1.586,3.377-0.879c2.994,1.714,5.947,3.488,8.89,5.282
					c1.396,0.851,1.657,2.073,0.644,3.604c-1.011,1.526-1.997,3.065-2.994,4.599C71.258,85.287,71.253,85.284,71.25,85.281z"/>
			</g>
		</g>
		<g id="iBaRlP_134_">
			<g>
				<path fill-rule="evenodd" clip-rule="evenodd" d="M57.178,76.871c-1.073,1.649-2.127,3.314-3.231,4.945
					c-0.897,1.33-2.097,1.666-3.363,0.928c-3.03-1.768-6.041-3.577-9.022-5.427c-1.241-0.771-1.436-2.003-0.607-3.313
					c2.064-3.268,4.182-6.51,6.321-9.73c0.891-1.345,2.146-1.584,3.38-0.88c2.992,1.714,5.946,3.487,8.886,5.281
					c1.396,0.853,1.655,2.073,0.647,3.604c-1.013,1.527-2.002,3.064-3,4.596C57.184,76.873,57.184,76.873,57.178,76.871z"/>
			</g>
		</g>
		<g id="iBaRlP_133_">
			<g>
				<path fill-rule="evenodd" clip-rule="evenodd" d="M43.107,68.459c-1.074,1.649-2.128,3.314-3.229,4.946
					c-0.898,1.33-2.099,1.665-3.364,0.929c-3.033-1.768-6.042-3.578-9.021-5.428c-1.244-0.771-1.436-2.003-0.611-3.313
					c2.064-3.269,4.184-6.509,6.322-9.731c0.892-1.345,2.148-1.584,3.378-0.879c2.994,1.714,5.946,3.487,8.886,5.281
					c1.397,0.852,1.659,2.073,0.646,3.605c-1.008,1.526-1.995,3.064-2.995,4.597C43.113,68.461,43.109,68.461,43.107,68.459z"/>
			</g>
		</g>
		<g id="iBaRlP_132_">
			<g>
				<path fill-rule="evenodd" clip-rule="evenodd" d="M95.222,78.476c-1.069,1.648-2.125,3.314-3.228,4.946
					c-0.897,1.329-2.1,1.666-3.362,0.928c-3.035-1.77-6.043-3.578-9.027-5.429c-1.238-0.771-1.429-2.003-0.604-3.313
					c2.062-3.27,4.182-6.508,6.323-9.731c0.893-1.344,2.142-1.583,3.376-0.878c2.993,1.713,5.948,3.487,8.89,5.281
					c1.395,0.853,1.656,2.074,0.643,3.605c-1.011,1.523-1.999,3.062-2.996,4.596C95.231,78.479,95.229,78.476,95.222,78.476z"/>
			</g>
		</g>
		<g id="iBaRlP_131_">
			<g>
				<path fill-rule="evenodd" clip-rule="evenodd" d="M81.153,70.063c-1.073,1.648-2.127,3.315-3.228,4.947
					c-0.899,1.329-2.1,1.665-3.365,0.927c-3.036-1.768-6.043-3.58-9.026-5.428c-1.239-0.77-1.433-2.002-0.604-3.313
					c2.062-3.268,4.182-6.507,6.322-9.732c0.892-1.344,2.142-1.583,3.376-0.878c2.994,1.713,5.948,3.488,8.89,5.281
					c1.396,0.852,1.654,2.074,0.641,3.605c-1.006,1.525-1.994,3.064-2.992,4.598C81.162,70.068,81.156,70.066,81.153,70.063z"/>
			</g>
		</g>
		<g id="iBaRlP_130_">
			<g>
				<path fill-rule="evenodd" clip-rule="evenodd" d="M67.083,61.651c-1.073,1.649-2.128,3.315-3.231,4.947
					c-0.896,1.329-2.098,1.665-3.365,0.927c-3.03-1.768-6.039-3.578-9.021-5.426c-1.241-0.771-1.436-2.005-0.609-3.314
					c2.066-3.268,4.182-6.508,6.321-9.731c0.893-1.345,2.146-1.584,3.38-0.878c2.993,1.711,5.948,3.486,8.885,5.281
					c1.399,0.852,1.659,2.072,0.646,3.605c-1.008,1.524-1.999,3.062-2.994,4.594C67.088,61.655,67.087,61.654,67.083,61.651z"/>
			</g>
		</g>
		<g id="iBaRlP_129_">
			<g>
				<path fill-rule="evenodd" clip-rule="evenodd" d="M53.012,53.24c-1.073,1.65-2.129,3.316-3.231,4.947
					c-0.897,1.328-2.098,1.665-3.362,0.928c-3.033-1.768-6.041-3.578-9.024-5.426c-1.242-0.772-1.432-2.006-0.608-3.314
					c2.064-3.268,4.185-6.509,6.322-9.732c0.893-1.346,2.147-1.585,3.379-0.879c2.992,1.713,5.944,3.488,8.886,5.279
					c1.397,0.854,1.657,2.074,0.642,3.606c-1.004,1.526-1.993,3.065-2.992,4.598C53.018,53.244,53.015,53.242,53.012,53.24z"/>
			</g>
		</g>
		<g id="iBaRlP_128_">
			<g>
				<path fill-rule="evenodd" clip-rule="evenodd" d="M105.129,63.256c-1.073,1.65-2.129,3.314-3.229,4.947
					c-0.9,1.328-2.099,1.664-3.366,0.928c-3.032-1.77-6.042-3.578-9.024-5.429c-1.24-0.771-1.431-2.001-0.605-3.313
					c2.062-3.27,4.181-6.506,6.322-9.732c0.891-1.343,2.143-1.583,3.377-0.877c2.992,1.713,5.947,3.488,8.889,5.28
					c1.395,0.853,1.656,2.076,0.643,3.606c-1.009,1.525-1.997,3.063-2.994,4.596C105.139,63.26,105.132,63.256,105.129,63.256z"/>
			</g>
		</g>
		<g id="iBaRlP_127_">
			<g>
				<path fill-rule="evenodd" clip-rule="evenodd" d="M91.059,54.844c-1.075,1.651-2.129,3.316-3.229,4.947
					c-0.898,1.328-2.1,1.666-3.366,0.928c-3.034-1.77-6.043-3.578-9.022-5.428c-1.241-0.771-1.434-2.002-0.607-3.312
					c2.062-3.268,4.183-6.508,6.319-9.732c0.894-1.343,2.146-1.585,3.378-0.878c2.994,1.713,5.946,3.487,8.889,5.28
					c1.396,0.852,1.657,2.075,0.645,3.605c-1.009,1.525-1.996,3.064-2.992,4.598C91.066,54.85,91.062,54.847,91.059,54.844z"/>
			</g>
		</g>
		<g id="iBaRlP_126_">
			<g>
				<path fill-rule="evenodd" clip-rule="evenodd" d="M76.986,46.432c-1.074,1.652-2.127,3.316-3.23,4.949
					c-0.896,1.327-2.1,1.664-3.363,0.928c-3.033-1.77-6.042-3.579-9.023-5.428c-1.241-0.771-1.436-2.004-0.605-3.314
					c2.064-3.268,4.178-6.508,6.319-9.731c0.891-1.345,2.146-1.585,3.38-0.877c2.991,1.711,5.944,3.485,8.887,5.279
					c1.394,0.852,1.656,2.074,0.645,3.606c-1.011,1.525-2.002,3.062-2.999,4.594C76.993,46.436,76.993,46.435,76.986,46.432z"/>
			</g>
		</g>
		<g id="iBaRlP_125_">
			<g>
				<path fill-rule="evenodd" clip-rule="evenodd" d="M62.917,38.021c-1.075,1.651-2.127,3.315-3.231,4.947
					c-0.897,1.328-2.1,1.666-3.361,0.928c-3.034-1.768-6.045-3.576-9.025-5.426c-1.242-0.772-1.437-2.004-0.607-3.316
					c2.062-3.267,4.18-6.506,6.322-9.731c0.891-1.344,2.146-1.585,3.377-0.878c2.992,1.713,5.945,3.487,8.887,5.281
					c1.397,0.853,1.656,2.074,0.643,3.605c-1.006,1.526-1.996,3.064-2.993,4.598C62.92,38.025,62.92,38.023,62.917,38.021z"/>
			</g>
		</g>
		<g id="iBaRlP_124_">
			<g>
				<path fill-rule="evenodd" clip-rule="evenodd" d="M115.032,48.038c-1.076,1.651-2.127,3.314-3.228,4.947
					c-0.9,1.327-2.1,1.663-3.365,0.927c-3.032-1.771-6.042-3.578-9.023-5.429c-1.242-0.769-1.432-2.002-0.608-3.312
					c2.063-3.271,4.181-6.508,6.324-9.733c0.891-1.343,2.142-1.585,3.378-0.878c2.991,1.715,5.946,3.487,8.883,5.281
					c1.399,0.853,1.661,2.074,0.646,3.605c-1.007,1.526-1.998,3.062-2.992,4.596C115.042,48.043,115.035,48.039,115.032,48.038z"/>
			</g>
		</g>
		<g id="iBaRlP_123_">
			<g>
				<path fill-rule="evenodd" clip-rule="evenodd" d="M100.962,39.626c-1.075,1.651-2.126,3.315-3.229,4.949
					c-0.898,1.325-2.099,1.663-3.363,0.927c-3.035-1.771-6.043-3.579-9.024-5.43c-1.239-0.769-1.436-2.002-0.606-3.312
					c2.062-3.268,4.182-6.508,6.322-9.732c0.893-1.344,2.145-1.586,3.376-0.879c2.993,1.715,5.948,3.488,8.887,5.282
					c1.397,0.853,1.659,2.074,0.646,3.605c-1.01,1.526-1.997,3.062-2.995,4.598C100.969,39.631,100.966,39.629,100.962,39.626z"/>
			</g>
		</g>
		<g id="iBaRlP_122_">
			<g>
				<path fill-rule="evenodd" clip-rule="evenodd" d="M86.893,31.216c-1.075,1.65-2.127,3.313-3.233,4.947
					c-0.896,1.328-2.096,1.663-3.363,0.927c-3.03-1.77-6.044-3.579-9.021-5.43c-1.243-0.769-1.437-2-0.61-3.311
					c2.065-3.271,4.182-6.51,6.324-9.734c0.891-1.344,2.144-1.584,3.38-0.876c2.991,1.712,5.944,3.484,8.885,5.281
					c1.395,0.853,1.656,2.072,0.646,3.604c-1.013,1.527-1.999,3.062-2.996,4.596C86.896,31.219,86.896,31.218,86.893,31.216z"/>
			</g>
		</g>
		<g id="iBaRlP_121_">
			<g>
				<path fill-rule="evenodd" clip-rule="evenodd" d="M72.818,22.804c-1.073,1.651-2.127,3.313-3.229,4.947
					c-0.897,1.328-2.098,1.663-3.361,0.927c-3.034-1.768-6.044-3.576-9.023-5.428c-1.244-0.77-1.436-2.002-0.608-3.314
					c2.062-3.268,4.181-6.507,6.321-9.731c0.892-1.345,2.146-1.584,3.376-0.877c2.994,1.713,5.948,3.487,8.888,5.282
					c1.397,0.851,1.658,2.072,0.644,3.603c-1.007,1.528-1.993,3.065-2.994,4.598C72.825,22.807,72.822,22.805,72.818,22.804z"/>
			</g>
		</g>
	</g>
	<g>
		<g id="iBaRlP_20_">
			<g>
				<path fill-rule="evenodd" clip-rule="evenodd" d="M137.282,146.895c-1.075,1.65-2.127,3.314-3.229,4.947
					c-0.898,1.328-2.099,1.666-3.363,0.928c-3.034-1.771-6.041-3.578-9.026-5.43c-1.237-0.768-1.431-2.003-0.605-3.312
					c2.062-3.27,4.181-6.509,6.321-9.731c0.893-1.344,2.144-1.586,3.378-0.88c2.993,1.714,5.946,3.487,8.887,5.282
					c1.397,0.854,1.659,2.072,0.646,3.604c-1.008,1.526-1.999,3.065-2.996,4.598C137.289,146.897,137.286,146.896,137.282,146.895z"
					/>
			</g>
		</g>
		<g id="iBaRlP_19_">
			<g>
				<path fill-rule="evenodd" clip-rule="evenodd" d="M123.211,138.484c-1.073,1.648-2.127,3.312-3.229,4.946
					c-0.898,1.329-2.099,1.664-3.365,0.926c-3.033-1.769-6.045-3.577-9.025-5.427c-1.238-0.77-1.43-2.004-0.605-3.312
					c2.062-3.27,4.184-6.509,6.32-9.732c0.893-1.343,2.146-1.586,3.382-0.879c2.989,1.715,5.942,3.488,8.885,5.282
					c1.394,0.853,1.657,2.073,0.646,3.604c-1.012,1.526-1.997,3.066-2.996,4.599C123.221,138.488,123.216,138.485,123.211,138.484z"
					/>
			</g>
		</g>
		<g id="iBaRlP_18_">
			<g>
				<path fill-rule="evenodd" clip-rule="evenodd" d="M109.141,130.072c-1.075,1.65-2.127,3.313-3.231,4.945
					c-0.897,1.33-2.099,1.666-3.363,0.928c-3.03-1.768-6.043-3.577-9.022-5.427c-1.242-0.771-1.435-2.005-0.609-3.313
					c2.066-3.268,4.182-6.51,6.323-9.73c0.891-1.345,2.145-1.584,3.38-0.881c2.99,1.715,5.943,3.488,8.884,5.282
					c1.396,0.853,1.658,2.073,0.647,3.604c-1.011,1.525-2.002,3.063-3,4.598C109.146,130.075,109.144,130.073,109.141,130.072z"/>
			</g>
		</g>
		<g id="iBaRlP_17_">
			<g>
				<path fill-rule="evenodd" clip-rule="evenodd" d="M95.068,121.661c-1.074,1.649-2.125,3.313-3.229,4.946
					c-0.9,1.329-2.099,1.663-3.361,0.927c-3.034-1.769-6.044-3.577-9.024-5.426c-1.245-0.771-1.434-2.005-0.611-3.313
					c2.064-3.27,4.184-6.509,6.325-9.734c0.889-1.341,2.144-1.58,3.376-0.877c2.993,1.714,5.948,3.488,8.887,5.281
					c1.397,0.853,1.659,2.073,0.645,3.604c-1.007,1.528-1.994,3.066-2.994,4.599C95.074,121.664,95.072,121.662,95.068,121.661z"/>
			</g>
		</g>
		<g id="iBaRlP_16_">
			<g>
				<path fill-rule="evenodd" clip-rule="evenodd" d="M147.186,131.676c-1.072,1.648-2.126,3.314-3.229,4.946
					c-0.898,1.33-2.099,1.666-3.363,0.929c-3.034-1.77-6.043-3.578-9.024-5.429c-1.239-0.771-1.434-2.003-0.604-3.313
					c2.058-3.271,4.178-6.51,6.319-9.729c0.893-1.345,2.146-1.586,3.376-0.88c2.993,1.713,5.949,3.487,8.89,5.281
					c1.395,0.854,1.658,2.072,0.643,3.605c-1.008,1.523-1.999,3.062-2.996,4.596C147.192,131.68,147.189,131.678,147.186,131.676z"
					/>
			</g>
		</g>
		<g id="iBaRlP_15_">
			<g>
				<path fill-rule="evenodd" clip-rule="evenodd" d="M133.116,123.265c-1.072,1.648-2.129,3.313-3.229,4.946
					c-0.9,1.33-2.101,1.665-3.364,0.928c-3.036-1.769-6.045-3.578-9.025-5.43c-1.242-0.768-1.432-2-0.607-3.311
					c2.062-3.27,4.184-6.508,6.322-9.732c0.891-1.344,2.145-1.585,3.376-0.878c2.994,1.713,5.949,3.487,8.89,5.28
					c1.396,0.852,1.659,2.074,0.644,3.604c-1.013,1.527-1.997,3.067-2.995,4.6C133.124,123.269,133.119,123.266,133.116,123.265z"/>
			</g>
		</g>
		<g id="iBaRlP_14_">
			<g>
				<path fill-rule="evenodd" clip-rule="evenodd" d="M119.044,114.854c-1.073,1.649-2.127,3.314-3.231,4.945
					c-0.896,1.33-2.098,1.666-3.363,0.928c-3.03-1.767-6.041-3.578-9.022-5.426c-1.241-0.772-1.436-2.005-0.609-3.314
					c2.066-3.268,4.182-6.509,6.325-9.73c0.889-1.346,2.143-1.584,3.378-0.88c2.993,1.714,5.946,3.487,8.886,5.28
					c1.396,0.854,1.654,2.074,0.646,3.605c-1.011,1.526-2,3.064-2.998,4.596C119.049,114.855,119.049,114.855,119.044,114.854z"/>
			</g>
		</g>
		<g id="iBaRlP_13_">
			<g>
				<path fill-rule="evenodd" clip-rule="evenodd" d="M104.975,106.441c-1.074,1.65-2.127,3.315-3.23,4.945
					c-0.898,1.33-2.099,1.666-3.365,0.93c-3.032-1.768-6.041-3.578-9.021-5.428c-1.245-0.771-1.436-2.003-0.611-3.312
					c2.064-3.27,4.184-6.51,6.321-9.732c0.893-1.344,2.148-1.584,3.379-0.879c2.994,1.715,5.945,3.487,8.888,5.281
					c1.396,0.852,1.655,2.072,0.646,3.604c-1.01,1.526-1.999,3.065-2.996,4.597C104.979,106.443,104.976,106.443,104.975,106.441z"
					/>
			</g>
		</g>
		<g id="iBaRlP_12_">
			<g>
				<path fill-rule="evenodd" clip-rule="evenodd" d="M157.09,116.457c-1.072,1.649-2.127,3.314-3.23,4.947
					c-0.895,1.328-2.099,1.665-3.361,0.927c-3.035-1.769-6.041-3.578-9.027-5.427c-1.238-0.771-1.43-2.004-0.603-3.314
					c2.061-3.27,4.178-6.508,6.321-9.73c0.893-1.346,2.142-1.585,3.375-0.879c2.992,1.713,5.949,3.487,8.889,5.281
					c1.396,0.852,1.658,2.074,0.646,3.605c-1.012,1.523-2,3.063-2.999,4.596C157.096,116.462,157.093,116.457,157.09,116.457z"/>
			</g>
		</g>
		<g id="iBaRlP_11_">
			<g>
				<path fill-rule="evenodd" clip-rule="evenodd" d="M143.02,108.045c-1.071,1.65-2.127,3.316-3.229,4.948
					c-0.898,1.329-2.101,1.665-3.364,0.927c-3.036-1.768-6.044-3.58-9.024-5.428c-1.242-0.77-1.433-2.002-0.606-3.312
					c2.062-3.268,4.182-6.508,6.321-9.732c0.893-1.344,2.143-1.585,3.377-0.879c2.994,1.713,5.947,3.488,8.89,5.281
					c1.396,0.852,1.654,2.074,0.64,3.605c-1.007,1.525-1.991,3.064-2.99,4.598C143.027,108.051,143.023,108.048,143.02,108.045z"/>
			</g>
		</g>
		<g id="iBaRlP_10_">
			<g>
				<path fill-rule="evenodd" clip-rule="evenodd" d="M128.949,99.633c-1.073,1.652-2.129,3.317-3.231,4.949
					c-0.897,1.328-2.097,1.664-3.364,0.927c-3.031-1.769-6.04-3.579-9.021-5.427c-1.241-0.771-1.436-2.004-0.607-3.314
					c2.064-3.268,4.178-6.509,6.321-9.73c0.892-1.346,2.146-1.585,3.378-0.879c2.993,1.712,5.947,3.486,8.885,5.28
					c1.4,0.853,1.659,2.073,0.646,3.606c-1.007,1.525-2,3.062-2.996,4.595C128.953,99.637,128.953,99.637,128.949,99.633z"/>
			</g>
		</g>
		<g id="iBaRlP_9_">
			<g>
				<path fill-rule="evenodd" clip-rule="evenodd" d="M114.878,91.223c-1.073,1.649-2.127,3.316-3.231,4.947
					c-0.897,1.329-2.098,1.666-3.361,0.928c-3.034-1.769-6.042-3.578-9.025-5.426c-1.242-0.772-1.432-2.006-0.609-3.314
					c2.064-3.269,4.186-6.509,6.324-9.732c0.892-1.346,2.146-1.585,3.377-0.879c2.993,1.713,5.946,3.487,8.887,5.28
					c1.396,0.854,1.659,2.073,0.643,3.604c-1.005,1.527-1.996,3.066-2.993,4.6C114.885,91.227,114.881,91.225,114.878,91.223z"/>
			</g>
		</g>
		<g id="iBaRlP_8_">
			<g>
				<path fill-rule="evenodd" clip-rule="evenodd" d="M166.996,101.237c-1.074,1.651-2.13,3.315-3.229,4.948
					c-0.898,1.327-2.099,1.664-3.366,0.928c-3.032-1.77-6.042-3.578-9.024-5.429c-1.239-0.77-1.431-2.002-0.604-3.313
					c2.061-3.27,4.178-6.506,6.321-9.73c0.891-1.344,2.142-1.585,3.378-0.88c2.993,1.715,5.946,3.488,8.887,5.281
					c1.396,0.853,1.656,2.075,0.646,3.606c-1.011,1.525-1.999,3.062-2.997,4.595C167.003,101.242,167,101.238,166.996,101.237z"/>
			</g>
		</g>
		<g id="iBaRlP_7_">
			<g>
				<path fill-rule="evenodd" clip-rule="evenodd" d="M152.925,92.826c-1.073,1.651-2.127,3.316-3.229,4.947
					c-0.897,1.329-2.098,1.666-3.365,0.928c-3.035-1.77-6.045-3.578-9.024-5.428c-1.239-0.77-1.433-2.001-0.606-3.313
					c2.063-3.268,4.184-6.507,6.32-9.731c0.895-1.344,2.146-1.585,3.378-0.878c2.995,1.713,5.948,3.487,8.888,5.28
					c1.396,0.852,1.658,2.074,0.646,3.605c-1.011,1.526-1.995,3.064-2.993,4.598C152.934,92.832,152.928,92.828,152.925,92.826z"/>
			</g>
		</g>
		<g id="iBaRlP_6_">
			<g>
				<path fill-rule="evenodd" clip-rule="evenodd" d="M138.854,84.414c-1.075,1.652-2.127,3.316-3.232,4.949
					c-0.896,1.328-2.099,1.664-3.363,0.927c-3.031-1.769-6.041-3.579-9.022-5.427c-1.243-0.771-1.436-2.004-0.607-3.315
					c2.064-3.268,4.179-6.507,6.321-9.73c0.893-1.345,2.146-1.585,3.378-0.876c2.993,1.71,5.946,3.484,8.888,5.279
					c1.395,0.852,1.656,2.074,0.645,3.605c-1.008,1.525-2,3.062-2.996,4.595C138.859,84.418,138.859,84.418,138.854,84.414z"/>
			</g>
		</g>
		<g id="iBaRlP_5_">
			<g>
				<path fill-rule="evenodd" clip-rule="evenodd" d="M124.783,76.004c-1.075,1.65-2.125,3.315-3.232,4.947
					c-0.896,1.328-2.099,1.665-3.361,0.927c-3.035-1.767-6.045-3.575-9.024-5.426c-1.243-0.772-1.436-2.003-0.607-3.315
					c2.063-3.268,4.18-6.506,6.321-9.731c0.891-1.345,2.146-1.584,3.38-0.876c2.989,1.711,5.942,3.486,8.887,5.279
					c1.396,0.852,1.655,2.074,0.642,3.605c-1.008,1.525-1.995,3.064-2.994,4.598C124.786,76.008,124.786,76.006,124.783,76.004z"/>
			</g>
		</g>
		<g id="iBaRlP_4_">
			<g>
				<path fill-rule="evenodd" clip-rule="evenodd" d="M176.896,86.02c-1.073,1.651-2.127,3.314-3.227,4.948
					c-0.898,1.328-2.099,1.663-3.364,0.928c-3.032-1.772-6.042-3.579-9.022-5.431c-1.243-0.768-1.433-2-0.608-3.311
					c2.062-3.271,4.182-6.509,6.323-9.733c0.891-1.343,2.142-1.585,3.377-0.878c2.992,1.714,5.945,3.486,8.886,5.281
					c1.397,0.854,1.659,2.075,0.646,3.605c-1.01,1.527-1.998,3.062-2.996,4.597C176.906,86.025,176.9,86.021,176.896,86.02z"/>
			</g>
		</g>
		<g id="iBaRlP_3_">
			<g>
				<path fill-rule="evenodd" clip-rule="evenodd" d="M162.828,77.609c-1.073,1.65-2.127,3.314-3.229,4.947
					c-0.899,1.327-2.101,1.664-3.365,0.928c-3.032-1.771-6.041-3.579-9.024-5.43c-1.238-0.769-1.432-2.002-0.604-3.312
					c2.061-3.268,4.181-6.509,6.321-9.732c0.894-1.345,2.145-1.585,3.376-0.878c2.993,1.713,5.947,3.487,8.887,5.282
					c1.396,0.852,1.659,2.073,0.645,3.604c-1.009,1.527-1.995,3.064-2.994,4.599C162.835,77.613,162.832,77.611,162.828,77.609z"/>
			</g>
		</g>
		<g id="iBaRlP_2_">
			<g>
				<path fill-rule="evenodd" clip-rule="evenodd" d="M148.757,69.198c-1.073,1.65-2.126,3.313-3.231,4.946
					c-0.897,1.329-2.096,1.664-3.363,0.928c-3.031-1.77-6.043-3.578-9.021-5.429c-1.244-0.77-1.438-2.002-0.609-3.312
					c2.064-3.271,4.179-6.51,6.325-9.734c0.889-1.344,2.144-1.583,3.378-0.876c2.989,1.712,5.943,3.485,8.883,5.28
					c1.396,0.853,1.658,2.073,0.646,3.605c-1.011,1.526-1.997,3.062-2.996,4.596C148.764,69.201,148.76,69.199,148.757,69.198z"/>
			</g>
		</g>
		<g id="iBaRlP_1_">
			<g>
				<path fill-rule="evenodd" clip-rule="evenodd" d="M134.685,60.786c-1.073,1.651-2.127,3.313-3.229,4.946
					c-0.897,1.329-2.098,1.664-3.361,0.928c-3.033-1.768-6.043-3.576-9.025-5.428c-1.242-0.77-1.436-2.003-0.607-3.314
					c2.063-3.268,4.184-6.506,6.32-9.73c0.894-1.345,2.148-1.585,3.378-0.878c2.995,1.713,5.949,3.486,8.888,5.282
					c1.398,0.851,1.658,2.072,0.644,3.602c-1.007,1.529-1.995,3.066-2.994,4.599C134.691,60.789,134.688,60.787,134.685,60.786z"/>
			</g>
		</g>
	</g>
</g>
</svg>
