<?xml version="1.0" encoding="utf-8"?>
<!-- Generator: Adobe Illustrator 16.0.0, SVG Export Plug-In . SVG Version: 6.00 Build 0)  -->
<!DOCTYPE svg PUBLIC "-//W3C//DTD SVG 1.1//EN" "http://www.w3.org/Graphics/SVG/1.1/DTD/svg11.dtd">
<svg version="1.1" id="Layer_1" xmlns="http://www.w3.org/2000/svg" xmlns:xlink="http://www.w3.org/1999/xlink" x="0px" y="0px"
	 width="66px" height="116px" viewBox="0 0 66 116" enable-background="new 0 0 66 116" xml:space="preserve">
<g>
	<g>
		<g>
			<path d="M30.592,93.688c-4.129,2.408-6.275,2.843-8.46,3.133c-1.786,0.309-0.19,1.739-3.468,3.651
				c-0.679,0.396-4.561-1.105-4.656-1.98c-3.312-36.757-2.298-52.311,0.729-68.156l0.019-0.084c0.184-0.748,0.56-1.418,1.002-1.798
				l0.084-0.076c2.18-1.944,7.99-6.9,14.801-10.873c4.71-2.747,9.924-5.006,14.683-6.357c0.096-0.026,0.158-0.046,0.188-0.055
				c0.457-0.143,4.547,1.229,4.547,1.229c2.999,12.2,0.493,25.991-2.781,66.739c-0.089,1.029-0.646,2.033-1.361,2.451
				c-3.277,1.911-4.979,3.605-6.78,5.396C36.773,89.302,34.639,91.326,30.592,93.688z"/>
		</g>
	</g>
	<g>
		<g>
			<path fill="#FFFFFF" d="M34.385,93.902c-4.11,2.396-6.242,2.796-8.272,3.065c-1.878,0.324-3.652,0.654-6.952,2.578
				c-0.406,0.239-0.711-0.005-0.76-0.471c-3.299-36.613-2.285-52.115,0.709-67.786c0.101-0.408,0.305-0.81,0.559-1.027
				c0.253-0.221,6.852-6.247,14.768-10.864c7.917-4.618,14.462-6.258,14.767-6.364c0.254-0.078,0.458,0.082,0.558,0.373
				c2.993,12.181,3.96,26.529,0.712,66.962c-0.05,0.594-0.355,1.121-0.761,1.357c-3.301,1.925-5.075,3.665-6.953,5.533
				C40.627,89.417,38.497,91.503,34.385,93.902z"/>
			<path d="M34.385,94.741c-4.129,2.408-6.275,2.843-8.46,3.132c-1.786,0.31-3.486,0.602-6.765,2.513
				c-0.678,0.396-1.264,0.034-1.359-0.841c-3.312-36.757-2.298-52.311,0.729-68.157l0.019-0.084
				c0.184-0.747,0.559-1.417,1.002-1.797l0.084-0.076c2.18-1.944,7.99-6.9,14.801-10.873c4.71-2.747,9.924-5.006,14.683-6.357
				c0.096-0.026,0.158-0.046,0.188-0.055c0.458-0.144,0.833,0.091,1.018,0.624l0.017,0.061c2.999,12.2,4.007,26.535,0.732,67.284
				c-0.089,1.028-0.646,2.033-1.361,2.451c-3.277,1.911-4.979,3.605-6.781,5.396C40.566,90.355,38.432,92.38,34.385,94.741z
				 M19.681,31.241c-2.975,15.588-3.962,30.964-0.682,67.387c0.007,0.056,0.058,0.143,0.161,0.08
				c3.454-2.015,5.321-2.336,7.125-2.644c2.101-0.278,4.148-0.696,8.1-3.001c4.185-2.441,6.314-4.6,8.195-6.501
				c1.811-1.805,3.678-3.659,7.131-5.673c0.133-0.079,0.151-0.173,0.16-0.275c3.244-40.395,2.267-54.583-0.681-66.589
				c-0.034-0.082-0.082-0.11-0.104-0.102c-0.014,0.005-0.093,0.027-0.225,0.063c-4.675,1.327-9.8,3.55-14.426,6.249
				c-6.879,4.012-12.866,9.187-14.537,10.68c-0.058,0.047-0.096,0.084-0.112,0.097C19.764,31.034,19.714,31.118,19.681,31.241z"/>
		</g>
		<g>
			<path fill="#BCBEC0" d="M51.537,55.461c-4.605,2.367-9.362-0.634-13.774-7.062c-3.822-5.579-7.718-8.705-12.626-10.139
				c-4.34-1.267-5.943-3.938-6.039-4.093l0.242-1.358c0.023,0.038,1.99,3.147,6.184,4.372c4.999,1.459,8.96,4.638,12.842,10.299
				c4.285,6.256,8.824,9.208,13.209,6.955L51.537,55.461z"/>
		</g>
		<g>
			<path fill="#010101" d="M25.048,44.072c0.049,0.18,0.153,0.262,0.304,0.242l0.508-0.295v1.757l0.305-0.177v-1.758l0.56-0.326
				c0.151-0.158,0.303-0.39,0.303-0.601L25.048,44.072L25.048,44.072z M39.712,37.696c0.153-0.159,0.255-0.43,0.255-0.571
				l-1.371,0.8v-1.758l-0.303,0.176v2.18L39.712,37.696z M34.131,39.192l1.065-0.62c0.151-0.158,0.305-0.389,0.355-0.629
				l-1.727,1.009v1.265l1.422-0.83v0.422l-1.116,0.648c-0.151,0.16-0.306,0.394-0.406,0.66l1.776-1.034v-1.335l-1.421,0.83
				L34.131,39.192z M29.768,41.739l1.167-0.68c0.151-0.159,0.303-0.389,0.303-0.6l-1.824,1.065
				C29.463,41.705,29.614,41.828,29.768,41.739 M29.768,42.582l1.167-0.68c0.151-0.159,0.303-0.385,0.303-0.6l-1.824,1.065
				C29.463,42.551,29.614,42.671,29.768,42.582 M29.768,43.498l1.167-0.682c0.151-0.158,0.303-0.386,0.303-0.598l-1.824,1.062
				C29.463,43.465,29.614,43.518,29.768,43.498"/>
			<g>
				<path fill="#010101" d="M42.199,34.908v1.335l0.305-0.175v-0.843l1.116-0.653v0.843l0.306-0.177v-1.336L42.199,34.908z
					 M42.504,34.312l1.167-0.683c0.153-0.16,0.305-0.391,0.305-0.598l-1.827,1.062C42.199,34.277,42.3,34.429,42.504,34.312"/>
			</g>
		</g>
	</g>
</g>
</svg>
